<?xml version="1.0" encoding="UTF-8" standalone="no"?>
<svg
   xmlns:dc="http://purl.org/dc/elements/1.1/"
   xmlns:cc="http://creativecommons.org/ns#"
   xmlns:rdf="http://www.w3.org/1999/02/22-rdf-syntax-ns#"
   xmlns:svg="http://www.w3.org/2000/svg"
   xmlns="http://www.w3.org/2000/svg"
   xmlns:sodipodi="http://sodipodi.sourceforge.net/DTD/sodipodi-0.dtd"
   xmlns:inkscape="http://www.inkscape.org/namespaces/inkscape"
   inkscape:version="1.0 (4035a4f, 2020-05-01)"
   sodipodi:docname="pixelcat.svg"
   version="1.1"
   id="svg2"
   width="350"
   height="225"
   viewBox="0 0 350 225">
  <sodipodi:namedview
     inkscape:current-layer="svg2"
     inkscape:window-maximized="1"
     inkscape:window-y="23"
     inkscape:window-x="0"
     inkscape:cy="112.06318"
     inkscape:cx="174.06774"
     inkscape:zoom="1.2636719"
     inkscape:pagecheckerboard="true"
     fit-margin-bottom="0"
     fit-margin-right="0"
     fit-margin-left="0"
     fit-margin-top="0"
     showgrid="false"
     id="namedview56"
     inkscape:window-height="855"
     inkscape:window-width="1440"
     inkscape:pageshadow="2"
     inkscape:pageopacity="0"
     guidetolerance="10"
     gridtolerance="10"
     objecttolerance="10"
     borderopacity="1"
     bordercolor="#666666"
     pagecolor="#ffffff" />
  <metadata
     id="metadata8">
    <rdf:RDF>
      <cc:Work
         rdf:about="">
        <dc:format>image/svg+xml</dc:format>
        <dc:type
           rdf:resource="http://purl.org/dc/dcmitype/StillImage" />
        <dc:title></dc:title>
      </cc:Work>
    </rdf:RDF>
  </metadata>
  <defs
     id="defs6" />
  <path
     style="display:inline;opacity:1;fill:#ffffff;fill-opacity:1;fill-rule:nonzero;stroke-width:1.06564;paint-order:fill markers stroke"
     d="m 77.562512,0.43681907 c -3.27079,-7.9e-4 -6.75722,0.20801001 -9.375,3.18360003 -9.3864,12.8248999 -2.43182,73.4380599 -0.0176,92.1972599 -9.75521,11.710861 -15.2869,28.342381 -15.46289,42.720711 l -38.050785,-0.85743 c -16.9543766,-0.64091 -19.3181746,24.49858 -0.767578,24.91407 l 44.298823,0.99219 c 0.71906,1.52679 1.49996,3.04104 2.3379,4.5371 l -43.394535,15.14454 c -15.7220056,5.11476 -8.8136176,28.74691 7.953125,23.62695 l 51.37891,-17.83399 c 23.00774,22.25727 59.596968,35.42549 98.537098,35.4629 39.11176,0.15838 -39.14699,-0.23916 0,0 38.94013,-0.0374 75.52936,-13.20563 98.53711,-35.4629 l 51.37894,17.83399 c 16.76674,5.11996 23.67514,-18.51219 7.95312,-23.62695 l -43.39453,-15.14454 c 0.83793,-1.49606 1.61883,-3.01031 2.33789,-4.5371 l 44.29883,-0.99219 c 18.5506,-0.41549 16.1868,-25.55498 -0.76758,-24.91407 l -38.05078,0.85743 c -0.17599,-14.37833 -5.70768,-31.00985 -15.46289,-42.720711 2.41425,-18.7592 9.36882,-79.37236 -0.0176,-92.1972599 -2.61778,-2.97559002 -6.10421,-3.18439003 -9.375,-3.18360003 -11.68138,0.003 -25.67683,11.23942993 -36.64648,21.97460993 l -29.11719,31.82618 c -11.29165,-2.12181 -20.76008,-3.33105 -31.67383,-3.32032 -10.84715,0.32611 -22.44316,1.65589 -31.67382,3.32032 L 114.20898,22.411429 C 103.23933,11.676249 89.243872,0.43964908 77.562492,0.43681907 Z M 120.92384,113.68878 c 9.47498,0.007 17.21278,7.57637 17.43164,17.04883 -0.19796,9.48777 -7.9418,17.07793 -17.43164,17.08593 -9.47355,-0.004 -17.21337,-7.56621 -17.4375,-17.03711 0.19277,-9.49388 7.94166,-17.09265 17.4375,-17.09765 z m 108.15235,0 c 9.49584,0.005 17.24473,7.60377 17.4375,17.09765 -0.22413,9.4709 -7.96395,17.03311 -17.4375,17.03711 -9.48984,-0.008 -17.23368,-7.59816 -17.43164,-17.08593 0.21886,-9.47246 7.95666,-17.04183 17.43164,-17.04883 z"
     id="rect817" />
</svg>
